<svg width="64" height="64" viewBox="0 0 64 64" fill="none" xmlns="http://www.w3.org/2000/svg">
<path d="M48.9225 39.0888C40.0451 38.6759 33.0257 31.0372 33.0257 21.8501C33.0257 20.8179 33.129 19.8888 33.3354 18.8566V18.6501V18.5469C33.7483 15.863 33.3354 13.0759 31.3741 11.0114C29.7225 9.25658 26.5225 8.84367 23.1161 9.7727C18.2645 11.1146 14.858 15.2437 15.5806 19.063C15.8903 20.5082 17.3354 21.7469 19.2967 22.0566C19.8128 22.1598 20.329 22.1598 20.7419 22.1598C23.6322 22.1598 26.3161 20.7146 27.8645 18.2372C27.8645 18.2372 27.8645 18.134 27.8645 18.0308C27.8645 17.8243 27.7612 17.7211 27.5548 17.7211C27.4516 17.7211 27.4516 17.7211 27.3483 17.7211C26.3161 18.3404 25.1806 18.7533 24.0451 19.1663C22.7032 19.6824 21.258 19.4759 19.9161 18.8566C19.6064 18.6501 19.1935 18.2372 19.0903 17.6179C18.6774 15.863 20.4322 13.9017 23.0128 13.1792C25.4903 12.4566 27.4516 13.5921 28.1741 14.934C28.9999 16.2759 28.9999 17.9275 28.1741 20.3017C26.6257 24.1211 23.529 27.5275 20.9483 31.9663C18.5741 35.6824 17.7483 40.2243 18.5741 44.5598C19.7096 49.1017 22.4967 52.9211 26.3161 55.3985C28.587 55.605 30.858 55.3985 33.0257 54.7792C27.9677 52.405 24.7677 47.2437 24.7677 41.463C24.7677 39.3985 25.1806 37.2308 26.1096 35.3727C26.2128 35.1663 26.3161 34.9598 26.3161 34.8566C26.9354 33.7211 28.2774 30.934 29.6193 28.1469C31.8903 36.6114 38.9096 42.5985 47.3741 43.2179C47.3741 43.2179 47.787 42.2888 48.1999 41.2566C48.6128 40.2243 48.9225 39.0888 48.9225 39.0888Z" fill="#21407D"/>
</svg>
